<?xml version="1.0" encoding="UTF-8"?>
<svg width="1280" height="720" viewBox="0 0 1280 720" fill="none" xmlns="http://www.w3.org/2000/svg">
  <defs>
    <linearGradient id="bg" x1="0" y1="0" x2="1280" y2="720" gradientUnits="userSpaceOnUse">
      <stop stop-color="#09090f" />
      <stop offset="1" stop-color="#164e63" />
    </linearGradient>
    <radialGradient id="glow" cx="0" cy="0" r="1" gradientUnits="userSpaceOnUse" gradientTransform="translate(1020 120) rotate(140) scale(580 420)">
      <stop stop-color="#67e8f9" stop-opacity="0.45" />
      <stop offset="1" stop-color="#67e8f9" stop-opacity="0" />
    </radialGradient>
  </defs>
  <rect width="1280" height="720" rx="40" fill="url(#bg)"/>
  <rect width="1280" height="720" rx="40" fill="url(#glow)"/>
  <rect x="52" y="52" width="1176" height="616" rx="28" stroke="rgba(255,255,255,0.16)" />
  <circle cx="220" cy="176" r="116" fill="#38bdf8" fill-opacity="0.12" />
  <path d="M236 242C282 242 319 204 319 158C319 112 282 75 236 75C190 75 153 112 153 158C153 204 190 242 236 242Z" fill="#38bdf8" fill-opacity="0.92"/>
  <path d="M315 336C315 292.608 279.392 257 236 257C192.608 257 157 292.608 157 336V384H315V336Z" fill="#38bdf8" fill-opacity="0.82"/>
  <rect x="377" y="148" width="430" height="64" rx="20" fill="#38bdf8" fill-opacity="0.14" />
  <text x="413" y="192" fill="white" font-family="Arial, Helvetica, sans-serif" font-size="28" font-weight="700" letter-spacing="4">MOBILITY</text>
  <text x="148" y="492" fill="white" font-family="Arial, Helvetica, sans-serif" font-size="64" font-weight="800">Creeda</text>
  <text x="148" y="556" fill="#E5E7EB" font-family="Arial, Helvetica, sans-serif" font-size="28">CREEDA exercise media</text>
  <text x="148" y="602" fill="#A1A1AA" font-family="Arial, Helvetica, sans-serif" font-size="20">Open-source and first-party media pipeline</text>
</svg>